<?xml version="1.0" encoding="UTF-8"?>
<svg id="Ebene_1" data-name="Ebene 1" xmlns="http://www.w3.org/2000/svg" viewBox="0 0 146.55 140.14">
  <defs>
    <style>
      .cls-1 {
        fill: #f7f7f7;
      }

      .cls-1, .cls-2 {
        stroke-width: 0px;
      }

      .cls-2 {
        fill: #c1ebf8;
      }
    </style>
  </defs>
  <path class="cls-1" d="m146.55,119.55c0-.5-.66-.67-.9-.23-4.72,8.31-20.11,11.42-23.62,12.25-.71.17-1.44-.11-1.87-.69l-14.65-19.6c-.62-.82-1.93-.43-1.98.6l-1.07,19.02c-.02.43-.49.7-.87.5l-4.02-2.04c-.75-.38-1.57-.58-2.4-.6l-29.21-.51c-.47,0-.76-.51-.53-.92l18.81-33.91c.49-.88-.46-1.85-1.35-1.39l-18.09,9.39c-.4.21-.89-.08-.88-.53.28-11.93,10.96-21.61,13.82-23.99.35-.29.42-.82.15-1.18-.97-1.29-2.85-4.71-2.3-11.6.53-6.66-.33-10.76-.85-12.51-.13-.45-.71-.57-1.03-.22l-30.28,34.23c-3.68,2.91-3.65,12.34-3.54,15.39.02.44.5.7.88.48,8.33-4.66,12.06-2.84,12.06-2.84,5.61,3.02-11.86,19.84-11.86,19.84,0,0-12.94,13.8-16.17,11.64-2.79-1.86,5.98-14.32,8.44-17.7.25-.35.19-.85-.17-1.08-3.04-1.89-3.31-14.72-3.32-19.16,0-.54-.66-.8-1.03-.4L0,122.36v1.78c0,8.84,7.16,16,16,16h114.55c8.84,0,16-7.16,16-16v-4.59Z"/>
  <path class="cls-2" d="m72.73,42.71c.18,0,.37.01.55.02.18,0,.37-.02.55-.02,3.03,0,5.93,1.3,7.94,3.58l12.2,13.79h52.58V16c0-8.84-7.16-16-16-16H16C7.16,0,0,7.16,0,16v44.09h52.58l12.2-13.79c2.02-2.28,4.91-3.58,7.94-3.58Z"/>
  <polygon class="cls-2" points="0 66.74 0 79.12 35.74 79.12 46.7 66.74 0 66.74"/>
  <polygon class="cls-2" points="146.55 79.12 146.55 66.74 99.85 66.74 110.81 79.12 146.55 79.12"/>
  <path class="cls-2" d="m146.55,107.77v-22.22h-21c.35.29.69.59,1,.93l19.99,21.3Z"/>
  <path class="cls-2" d="m21,85.55H0v22.22l19.99-21.3c.31-.33.65-.64,1-.93Z"/>
</svg>