<?xml version="1.0" encoding="UTF-8"?>
<svg id="Ebene_1" data-name="Ebene 1" xmlns="http://www.w3.org/2000/svg" viewBox="0 0 217.3 174.2">
  <defs>
    <style>
      .cls-1 {
        fill: #2c3239;
      }

      .cls-1, .cls-2 {
        stroke-width: 0px;
      }

      .cls-2 {
        fill: #99bdc6;
      }
    </style>
  </defs>
  <g>
    <path class="cls-2" d="m98.82,40.14c2.02-2.39,4.91-3.76,7.94-3.76.18,0,.37.01.55.02.18-.01.37-.02.55-.02,3.03,0,5.93,1.37,7.94,3.76l12.2,14.47h49.66C168.96,23.07,141.24,0,108.36,0S47.76,23.07,39.05,54.6h47.57l12.2-14.47Z"/>
    <path class="cls-2" d="m80.74,61.58h-43.28c-.76,4.22-1.18,8.56-1.24,12.99h33.57l10.95-12.99Z"/>
    <path class="cls-2" d="m144.85,74.57h35.65c-.06-4.43-.49-8.77-1.24-12.99h-45.36l10.95,12.99Z"/>
    <path class="cls-2" d="m160.6,82.27l16.04,17.92c1.96-5.99,3.21-12.32,3.67-18.89h-20.71c.35.3.69.62,1,.97Z"/>
    <path class="cls-2" d="m55.04,81.3h-18.63c.42,5.94,1.47,11.7,3.12,17.18l14.51-16.21c.31-.35.65-.67,1-.97Z"/>
  </g>
  <path class="cls-1" d="m149.86,122.02l-10.34-14.45c-.62-.86-1.93-.45-1.98.62l-.74,13.82h13.07Z"/>
  <path class="cls-1" d="m74.98,115.09s-3.24,3.61-6.88,6.93h32.57l17.58-33.09c.49-.92-.46-1.94-1.35-1.45l-18.09,9.8c-.4.22-.89-.09-.88-.56.28-12.45,10.96-22.56,13.82-25.05.35-.31.42-.85.15-1.24-.97-1.34-2.85-4.92-2.3-12.11.53-6.95-.33-11.23-.85-13.06-.13-.47-.71-.6-1.03-.23l-30.28,35.74c-3.68,3.04-3.65,12.89-3.54,16.07.02.46.5.73.88.5,8.33-4.87,12.06-2.97,12.06-2.97,5.61,3.15-11.86,20.71-11.86,20.71Z"/>
  <path class="cls-1" d="m59.36,122.02c2.02-4.66,6.29-10.96,7.88-13.26.25-.36.19-.89-.17-1.13-3.04-1.98-3.31-15.36-3.32-20.01,0-.57-.66-.83-1.03-.42l-28.71,31.93v1.86c0,.34.03.68.05,1.02h25.3Z"/>
  <g>
    <path class="cls-1" d="m0,174.2v-2.38h.54c.45,0,.92-.07,1.42-.2s.92-.41,1.26-.83c.34-.42.52-1.05.52-1.89v-24.08c0-1.38-.29-2.25-.85-2.61-.57-.36-1.29-.54-2.16-.54h-.31v-2.39h8.82l.81,3.51h.18c.66-1.17,1.54-2.12,2.63-2.86,1.09-.74,2.51-1.1,4.25-1.1,3,0,5.29,1,6.86,3.01,1.58,2.01,2.36,5.21,2.36,9.58s-.77,7.52-2.32,9.52-3.79,2.99-6.73,2.99c-1.71,0-3.1-.32-4.16-.97-1.07-.64-1.93-1.52-2.59-2.63h-.32c.06.42.12.98.18,1.69.06.71.11,1.39.14,2.07.03.68.04,1.24.04,1.69v3.11c0,.84.17,1.47.52,1.89.34.42.77.7,1.28.83.51.13.97.2,1.39.2h.99v2.38H0Zm15.17-13.59c1.5,0,2.58-.76,3.24-2.27.66-1.51.99-3.8.99-6.86s-.32-5.29-.97-6.88c-.65-1.59-1.72-2.38-3.22-2.38-1.8,0-3.02.79-3.67,2.38s-.97,3.87-.97,6.84.32,5.39.97,6.91c.65,1.52,1.85,2.27,3.62,2.27Z"/>
    <path class="cls-1" d="m41.31,163.85c-3.81,0-6.71-1.09-8.69-3.26-1.98-2.17-2.97-5.21-2.97-9.11,0-4.23.97-7.42,2.92-9.56,1.95-2.14,4.7-3.22,8.24-3.22,3.27,0,5.84.92,7.72,2.75,1.87,1.83,2.81,4.53,2.81,8.1v2.29h-14.76c.09,3,.65,5.19,1.69,6.57,1.04,1.38,2.48,2.07,4.34,2.07,1.56,0,2.88-.35,3.96-1.06,1.08-.7,1.88-1.57,2.38-2.59.42.21.73.5.92.88.19.38.29.82.29,1.33,0,.84-.31,1.63-.94,2.36s-1.6,1.33-2.9,1.78c-1.31.45-2.98.67-5.02.67Zm3.15-14.89c0-2.31-.27-4.11-.81-5.4s-1.46-1.93-2.75-1.93-2.27.62-3.01,1.87c-.75,1.25-1.16,3.07-1.22,5.47h7.79Z"/>
    <path class="cls-1" d="m61.42,163.85c-1.98,0-3.65-.6-5.02-1.8-1.37-1.2-2.05-3.04-2.05-5.54s.84-4.23,2.52-5.4,4.2-1.81,7.56-1.93l3.69-.13v-2.48c0-1.02-.06-1.91-.18-2.68-.12-.77-.38-1.37-.76-1.8-.39-.43-1.01-.65-1.85-.65-.75,0-1.35.21-1.8.63-.45.42-.76,1-.95,1.73-.18.74-.27,1.57-.27,2.5-2.01,0-3.53-.23-4.54-.67-1.02-.45-1.53-1.23-1.53-2.34s.42-1.99,1.26-2.65,1.96-1.15,3.38-1.46c1.41-.31,2.96-.47,4.64-.47,3.15,0,5.51.57,7.09,1.71,1.58,1.14,2.36,3.12,2.36,5.94v11.47c0,1.23.2,2.07.59,2.52.39.45,1.09.67,2.11.67h.18v2.38h-8.37l-.95-3.1h-.41c-.66.81-1.28,1.48-1.87,2-.58.53-1.25.92-2,1.17-.75.25-1.69.38-2.83.38Zm2.48-3.29c1.29,0,2.32-.52,3.08-1.58.77-1.05,1.15-2.44,1.15-4.18v-3.38l-2.02.13c-1.8.09-3.05.56-3.74,1.42-.69.85-1.04,2.09-1.04,3.71,0,2.58.86,3.87,2.57,3.87Z"/>
    <path class="cls-1" d="m80.05,163.4v-2.38h.54c.45,0,.92-.07,1.42-.2.5-.14.92-.41,1.26-.83.34-.42.52-1.05.52-1.89v-23.76c0-.81-.18-1.41-.54-1.8-.36-.39-.79-.64-1.28-.76-.5-.12-.95-.18-1.37-.18h-.54v-2.39h10.57v17.37c0,.39-.01.86-.04,1.4s-.05,1.06-.07,1.55c-.02.49-.05,1.07-.11,1.73l5.67-6.35c.51-.57.84-1.02.99-1.35.15-.33.22-.6.22-.81,0-.39-.2-.69-.61-.9s-.98-.32-1.73-.32v-2.25h11.34v2.25c-1.02,0-2.04.31-3.06.92-1.02.62-2.12,1.58-3.29,2.9l-2.83,3.24,5.98,8.91c.78,1.2,1.58,2.08,2.39,2.65.81.57,1.57.86,2.29.86h.13v2.38h-.63c-1.65,0-3.04-.04-4.16-.11-1.12-.07-2.08-.24-2.86-.5-.78-.25-1.46-.65-2.05-1.19s-1.18-1.27-1.78-2.21l-4-6.3-1.8,1.35v3.65c0,.84.17,1.47.52,1.89.34.42.77.7,1.28.83.51.13.97.2,1.39.2h.54v2.38h-14.31Z"/>
    <path class="cls-1" d="m126.67,163.85c-1.74,0-3.16-.37-4.25-1.1-1.1-.73-1.97-1.69-2.63-2.86h-.41l-1.26,3.51h-8.55v-2.38h.32c.57,0,1.12-.07,1.64-.22.52-.15.95-.45,1.28-.9s.5-1.12.5-2.03v-23.26c0-1.29-.35-2.12-1.06-2.47-.71-.36-1.54-.54-2.5-.54h-.18v-2.39h10.58v7.7c0,.45-.02,1.01-.04,1.69-.03.67-.08,1.36-.13,2.05-.06.69-.12,1.26-.18,1.71h.31c.66-1.11,1.52-1.99,2.59-2.63,1.06-.64,2.45-.97,4.16-.97,2.94,0,5.18,1,6.73,2.99,1.54,2,2.32,5.17,2.32,9.52s-.79,7.54-2.36,9.56c-1.58,2.02-3.86,3.04-6.86,3.04Zm-1.89-3.38c1.5,0,2.57-.79,3.22-2.38.64-1.59.97-3.88.97-6.88s-.33-5.35-.99-6.86c-.66-1.51-1.74-2.27-3.24-2.27-1.77,0-2.98.75-3.62,2.25-.65,1.5-.97,3.81-.97,6.93s.32,5.25.97,6.84c.64,1.59,1.87,2.38,3.67,2.38Z"/>
    <path class="cls-1" d="m150.84,163.85c-3.6,0-6.43-1.04-8.5-3.13-2.07-2.08-3.1-5.24-3.1-9.47s.99-7.38,2.97-9.45c1.98-2.07,4.91-3.11,8.78-3.11,3.6,0,6.43,1.04,8.5,3.11,2.07,2.07,3.1,5.22,3.1,9.45s-1,7.39-2.99,9.47c-2,2.09-4.91,3.13-8.75,3.13Zm.09-2.83c1.74,0,2.95-.83,3.64-2.5.69-1.67,1.04-4.1,1.04-7.31s-.35-5.58-1.06-7.2c-.71-1.62-1.93-2.43-3.67-2.43s-2.96.8-3.64,2.41c-.69,1.6-1.04,4.03-1.04,7.27s.35,5.6,1.06,7.27c.7,1.67,1.93,2.5,3.67,2.5Z"/>
    <path class="cls-1" d="m177.52,163.85c-3.6,0-6.43-1.04-8.5-3.13-2.07-2.08-3.1-5.24-3.1-9.47s.99-7.38,2.97-9.45c1.98-2.07,4.91-3.11,8.78-3.11,3.6,0,6.43,1.04,8.5,3.11,2.07,2.07,3.1,5.22,3.1,9.45s-1,7.39-2.99,9.47c-2,2.09-4.91,3.13-8.75,3.13Zm.09-2.83c1.74,0,2.95-.83,3.64-2.5.69-1.67,1.04-4.1,1.04-7.31s-.35-5.58-1.06-7.2c-.71-1.62-1.93-2.43-3.67-2.43s-2.96.8-3.64,2.41c-.69,1.6-1.04,4.03-1.04,7.27s.35,5.6,1.06,7.27c.7,1.67,1.93,2.5,3.67,2.5Z"/>
    <path class="cls-1" d="m189.45,163.4v-2.38h.54c.45,0,.92-.07,1.42-.2.5-.14.92-.41,1.26-.83.34-.42.52-1.05.52-1.89v-23.76c0-.81-.18-1.41-.54-1.8-.36-.39-.79-.64-1.28-.76-.5-.12-.95-.18-1.37-.18h-.54v-2.39h10.58v17.37c0,.39-.02.86-.04,1.4-.03.54-.05,1.06-.07,1.55-.02.49-.05,1.07-.11,1.73l5.67-6.35c.51-.57.84-1.02.99-1.35.15-.33.22-.6.22-.81,0-.39-.2-.69-.61-.9s-.98-.32-1.73-.32v-2.25h11.34v2.25c-1.02,0-2.04.31-3.06.92-1.02.62-2.12,1.58-3.29,2.9l-2.83,3.24,5.98,8.91c.78,1.2,1.58,2.08,2.39,2.65.81.57,1.57.86,2.29.86h.13v2.38h-.63c-1.65,0-3.04-.04-4.16-.11-1.12-.07-2.08-.24-2.86-.5-.78-.25-1.46-.65-2.05-1.19s-1.18-1.27-1.78-2.21l-4-6.3-1.8,1.35v3.65c0,.84.17,1.47.52,1.89.34.42.77.7,1.28.83.51.13.97.2,1.4.2h.54v2.38h-14.31Z"/>
  </g>
</svg>